<?xml version="1.0" standalone="no"?>
<!DOCTYPE svg PUBLIC "-//W3C//DTD SVG 20010904//EN"
 "http://www.w3.org/TR/2001/REC-SVG-20010904/DTD/svg10.dtd">
<svg version="1.0" xmlns="http://www.w3.org/2000/svg"
 width="515.000000pt" height="484.000000pt" viewBox="0 0 515.000000 484.000000"
 preserveAspectRatio="xMidYMid meet">

<g transform="translate(0.000000,484.000000) scale(0.100000,-0.100000)"
fill="#000000" stroke="none">
<path d="M1365 4091 c-81 -14 -150 -71 -166 -137 -6 -24 -9 -540 -7 -1319 l2
-1280 -107 -3 -107 -3 0 -84 0 -85 1515 0 1515 0 0 85 0 84 -107 3 -108 3 -2
1275 c-2 701 -3 1292 -3 1312 0 45 -42 98 -104 131 l-41 22 -1120 1 c-616 1
-1138 -1 -1160 -5z m2215 -1451 l0 -1290 -1085 0 -1085 0 0 1283 c0 706 3
1287 7 1290 3 4 492 7 1085 7 l1078 0 0 -1290z"/>
<path d="M1630 3330 l0 -430 865 0 865 0 0 430 0 430 -865 0 -865 0 0 -430z
m695 134 c43 -57 134 -103 250 -129 27 -6 23 -9 -46 -29 -133 -39 -199 -90
-245 -191 -19 -42 -23 -47 -30 -30 -34 94 -64 133 -132 172 -25 15 -80 37
-121 49 -69 20 -73 23 -46 29 81 18 140 41 180 69 53 38 79 70 107 133 l21 48
19 -45 c11 -24 30 -59 43 -76z"/>
<path d="M1630 2125 l0 -605 865 0 865 0 0 605 0 605 -865 0 -865 0 0 -605z
m1113 371 c53 -167 227 -305 439 -347 94 -18 99 -19 94 -28 -3 -5 -29 -11 -58
-15 -223 -30 -419 -175 -475 -353 -9 -29 -22 -53 -28 -53 -6 0 -16 19 -22 43
-31 114 -134 232 -255 291 -71 35 -208 76 -254 76 -39 0 -37 19 3 25 255 44
442 175 499 348 28 87 34 88 57 13z"/>
</g>
</svg>
