<?xml version="1.0" standalone="no"?>
<!DOCTYPE svg PUBLIC "-//W3C//DTD SVG 20010904//EN"
 "http://www.w3.org/TR/2001/REC-SVG-20010904/DTD/svg10.dtd">
<svg version="1.0" xmlns="http://www.w3.org/2000/svg"
 width="500.000000pt" height="499.000000pt" viewBox="0 0 500.000000 499.000000"
 preserveAspectRatio="xMidYMid meet">

<g transform="translate(0.000000,499.000000) scale(0.100000,-0.100000)"
fill="#000000" stroke="none">
<path d="M2345 4269 c-689 -37 -1292 -437 -1444 -958 -123 -423 46 -858 451
-1161 137 -103 339 -206 501 -256 l57 -18 0 -252 0 -251 41 -7 c85 -14 170
-80 184 -145 l7 -31 339 0 339 0 0 40 c0 23 7 55 16 71 17 33 81 68 126 69 39
0 78 20 79 42 1 10 3 23 4 28 1 6 3 106 4 223 l1 212 85 29 c389 132 704 390
856 700 285 586 -44 1240 -771 1532 -260 105 -556 150 -875 133z m266 -756
c-23 -170 -41 -315 -41 -321 0 -9 75 -12 291 -12 271 0 290 -1 287 -17 -3 -20
-917 -917 -925 -909 -1 1 33 139 77 306 43 168 80 314 82 325 3 20 -4 20 -286
25 -185 3 -291 9 -293 15 -3 9 187 216 657 715 70 74 140 150 156 169 15 19
30 29 32 23 1 -5 -15 -149 -37 -319z"/>
<path d="M2130 987 c0 -13 12 -47 26 -76 76 -152 332 -214 512 -123 85 42 162
142 162 211 0 8 -96 11 -350 11 l-350 0 0 -23z"/>
</g>
</svg>
