<?xml version="1.0" standalone="no"?>
<!DOCTYPE svg PUBLIC "-//W3C//DTD SVG 20010904//EN"
 "http://www.w3.org/TR/2001/REC-SVG-20010904/DTD/svg10.dtd">
<svg version="1.0" xmlns="http://www.w3.org/2000/svg"
 width="546.000000pt" height="457.000000pt" viewBox="0 0 546.000000 457.000000"
 preserveAspectRatio="xMidYMid meet">

<g transform="translate(0.000000,457.000000) scale(0.100000,-0.100000)"
fill="#000000" stroke="none">
<path d="M2395 4199 c-48 -15 -124 -76 -156 -127 -48 -76 -59 -129 -59 -289
l0 -143 -600 0 c-574 0 -601 -1 -653 -20 -63 -24 -122 -79 -163 -152 l-29 -53
-3 -448 -3 -447 2016 2 2017 3 -2 426 c0 235 -4 440 -9 456 -28 97 -102 181
-187 213 -53 19 -75 20 -654 20 l-598 0 -4 163 c-3 161 -3 163 -36 229 -35 72
-91 128 -157 159 -37 17 -68 19 -365 18 -179 0 -338 -5 -355 -10z m713 -27
c66 -35 119 -88 149 -150 26 -54 28 -66 31 -219 l4 -163 -547 0 -547 0 4 163
c3 138 7 169 25 208 40 90 125 161 213 180 19 4 168 7 330 6 287 -2 296 -3
338 -25z"/>
<path d="M1737 2290 c-290 -35 -552 -249 -679 -555 l-33 -80 0 -330 c0 -314 1
-333 22 -387 38 -103 114 -176 204 -198 31 -7 484 -10 1514 -8 1440 3 1471 3
1510 23 64 31 129 103 155 171 l22 59 -1 655 -1 655 -597 0 -598 0 -6 -96 c-5
-99 -14 -124 -63 -177 -11 -13 -38 -33 -58 -43 -34 -18 -62 -19 -380 -19 -383
0 -394 2 -452 71 -40 48 -49 73 -55 174 l-6 90 -215 1 c-118 1 -245 -2 -283
-6z"/>
</g>
</svg>
