<?xml version="1.0" standalone="no"?>
<!DOCTYPE svg PUBLIC "-//W3C//DTD SVG 20010904//EN"
 "http://www.w3.org/TR/2001/REC-SVG-20010904/DTD/svg10.dtd">
<svg version="1.0" xmlns="http://www.w3.org/2000/svg"
 width="508.000000pt" height="491.000000pt" viewBox="0 0 508.000000 491.000000"
 preserveAspectRatio="xMidYMid meet">

<g transform="translate(0.000000,491.000000) scale(0.100000,-0.100000)"
fill="#000000" stroke="none">
<path d="M1510 3930 c0 -17 -7 -20 -42 -20 -49 0 -124 -33 -139 -61 -29 -55
39 -118 128 -119 52 0 52 0 71 -43 25 -57 60 -84 170 -132 50 -22 92 -44 92
-48 0 -24 -227 -97 -301 -97 -64 0 -69 -5 -69 -76 l0 -64 38 0 c124 0 340 61
448 126 55 33 61 35 101 25 27 -7 239 -11 597 -11 l556 0 0 183 c0 156 -3 188
-19 223 -22 49 -70 88 -141 115 -48 18 -84 19 -770 19 -713 0 -720 0 -720 -20z"/>
<path d="M2118 3164 c-4 -128 4 -112 -173 -359 -62 -88 -141 -200 -174 -248
l-61 -88 0 -114 0 -115 433 -2 432 -3 0 -275 0 -275 -432 -3 -433 -2 0 -158
c0 -153 1 -159 26 -198 31 -49 72 -77 144 -101 51 -17 101 -18 650 -18 547 0
599 1 649 18 74 25 124 60 149 106 22 38 22 43 22 587 0 542 0 549 -21 584
-12 19 -60 89 -107 155 -203 285 -256 362 -269 392 -8 20 -13 70 -13 128 l0
95 -85 0 -85 0 0 -101 0 -100 -32 24 c-129 97 -312 158 -520 173 l-96 7 -4
-109z"/>
</g>
</svg>
