<?xml version="1.0" standalone="no"?>
<!DOCTYPE svg PUBLIC "-//W3C//DTD SVG 20010904//EN"
 "http://www.w3.org/TR/2001/REC-SVG-20010904/DTD/svg10.dtd">
<svg version="1.0" xmlns="http://www.w3.org/2000/svg"
 width="356.000000pt" height="351.000000pt" viewBox="0 0 356.000000 351.000000"
 preserveAspectRatio="xMidYMid meet">

<g transform="translate(0.000000,351.000000) scale(0.100000,-0.100000)"
fill="#000000" stroke="none">
<path d="M860 2888 c-96 -66 -92 -197 9 -265 65 -44 167 -19 211 52 15 24 28
34 39 31 9 -2 31 -8 50 -11 38 -8 105 -64 129 -109 13 -25 18 -73 22 -236 6
-189 9 -211 34 -285 55 -160 179 -311 314 -383 57 -30 66 -32 168 -32 204 0
224 -18 224 -202 l0 -118 316 0 316 0 -4 178 c-4 158 -7 185 -31 257 -39 117
-91 199 -187 296 -71 71 -102 94 -181 133 -155 77 -164 78 -513 83 l-308 5 4
131 c3 109 8 139 25 172 33 64 89 105 159 118 28 5 35 1 64 -35 53 -65 126
-85 197 -52 106 51 113 212 11 274 -65 39 -177 18 -208 -39 -10 -20 -18 -21
-319 -21 l-308 0 -24 26 c-36 38 -72 54 -127 54 -34 0 -59 -7 -82 -22z"/>
<path d="M680 1960 l0 -531 208 3 c235 3 257 10 300 84 22 39 22 40 20 456 -3
403 -4 417 -24 444 -50 68 -55 69 -290 72 l-214 3 0 -531z"/>
</g>
</svg>
