<?xml version="1.0" standalone="no"?>
<!DOCTYPE svg PUBLIC "-//W3C//DTD SVG 20010904//EN"
 "http://www.w3.org/TR/2001/REC-SVG-20010904/DTD/svg10.dtd">
<svg version="1.0" xmlns="http://www.w3.org/2000/svg"
 width="447.000000pt" height="443.000000pt" viewBox="0 0 447.000000 443.000000"
 preserveAspectRatio="xMidYMid meet">

<g transform="translate(0.000000,443.000000) scale(0.100000,-0.100000)"
fill="#000000" stroke="none">
<path d="M1179 3586 c-58 -21 -96 -53 -121 -104 l-23 -47 -3 -1322 -2 -1323
495 0 495 0 0 610 c0 692 -5 649 83 738 l51 52 74 0 73 0 -3 623 -3 623 -26
49 c-18 35 -39 59 -74 80 l-48 30 -466 2 c-364 2 -474 0 -502 -11z m979 -798
l2 -248 -70 0 -70 0 0 250 0 251 68 -3 67 -3 3 -247z"/>
<path d="M2326 1679 l-26 -20 0 -273 c0 -230 2 -275 16 -294 l15 -22 388 0
c363 0 389 1 404 18 15 16 17 52 17 295 0 271 0 277 -22 297 -21 19 -33 20
-394 20 -361 0 -372 -1 -398 -21z"/>
</g>
</svg>
