<?xml version="1.0" standalone="no"?>
<!DOCTYPE svg PUBLIC "-//W3C//DTD SVG 20010904//EN"
 "http://www.w3.org/TR/2001/REC-SVG-20010904/DTD/svg10.dtd">
<svg version="1.0" xmlns="http://www.w3.org/2000/svg"
 width="491.000000pt" height="508.000000pt" viewBox="0 0 491.000000 508.000000"
 preserveAspectRatio="xMidYMid meet">

<g transform="translate(0.000000,508.000000) scale(0.100000,-0.100000)"
fill="#000000" stroke="none">
<path d="M2586 3866 c-39 -47 -43 -56 -23 -56 13 0 77 76 77 92 0 19 -21 5
-54 -36z"/>
<path d="M2467 3710 c-25 -33 -33 -51 -25 -56 12 -8 48 31 74 79 25 47 -8 32
-49 -23z"/>
<path d="M2349 3561 c-31 -39 -37 -56 -20 -56 11 0 71 74 71 86 0 19 -21 7
-51 -30z"/>
<path d="M2217 3403 c-50 -62 -27 -73 25 -12 40 47 46 59 26 59 -7 0 -30 -21
-51 -47z"/>
<path d="M2083 3260 c-32 -37 -42 -60 -24 -60 9 0 91 85 91 95 0 18 -40 -3
-67 -35z"/>
<path d="M1947 3132 c-42 -33 -61 -62 -39 -62 12 0 102 71 102 81 0 20 -19 15
-63 -19z"/>
<path d="M1557 3139 c-54 -8 -62 -13 -53 -28 4 -6 18 -6 36 -1 36 10 34 10 65
10 26 0 34 15 13 22 -7 2 -35 1 -61 -3z"/>
<path d="M1706 3124 c-3 -8 0 -14 8 -14 7 0 31 -16 55 -36 46 -40 44 -52 -9
-74 -17 -7 -27 -17 -24 -25 4 -11 14 -10 46 5 22 10 47 25 56 34 15 15 13 20
-35 65 -55 52 -88 67 -97 45z"/>
<path d="M1410 3030 c0 -43 23 -110 38 -110 19 0 21 15 6 38 -9 14 -16 44 -16
69 1 31 -3 43 -13 43 -11 0 -15 -12 -15 -40z"/>
<path d="M1833 2963 c3 -10 8 -40 12 -66 7 -52 32 -62 27 -11 -6 69 -13 94
-28 94 -10 0 -14 -6 -11 -17z"/>
<path d="M1619 2946 c-2 -2 -20 -6 -39 -8 -37 -5 -51 -33 -15 -32 51 1 105 17
105 30 0 13 -40 20 -51 10z"/>
<path d="M1850 2773 c-1 -4 -3 -34 -7 -65 -3 -38 -2 -58 5 -58 16 0 20 11 23
69 2 36 -1 56 -9 59 -7 2 -12 0 -12 -5z"/>
<path d="M1825 2568 c-9 -30 -25 -94 -25 -105 0 -7 6 -10 13 -7 12 4 37 84 37
115 0 14 -20 11 -25 -3z"/>
<path d="M1788 2378 c-8 -26 -3 -111 8 -115 6 -2 11 15 13 39 1 23 4 45 7 49
6 10 -6 39 -16 39 -4 0 -10 -6 -12 -12z"/>
<path d="M1782 2139 c2 -40 8 -64 16 -67 10 -3 12 11 10 59 -2 39 -8 64 -16
67 -10 3 -12 -11 -10 -59z"/>
<path d="M1797 1993 c-2 -5 -3 -17 -1 -28 10 -69 16 -85 30 -85 10 0 13 7 9
23 -9 34 -13 60 -14 80 -1 17 -16 23 -24 10z"/>
<path d="M1840 1803 c0 -18 27 -82 39 -97 26 -31 28 3 4 54 -21 43 -43 66 -43
43z"/>
<path d="M1930 1641 c0 -17 62 -91 78 -91 21 0 13 15 -33 60 -25 24 -45 38
-45 31z"/>
<path d="M2555 1517 c8 -64 8 -64 -64 -69 -27 -2 -46 -9 -49 -17 -4 -12 8 -13
65 -8 l69 7 2 -28 c4 -49 9 -66 18 -69 11 -3 166 127 172 144 3 11 -25 28 -63
39 -5 1 -35 12 -65 24 -99 39 -93 40 -85 -23z"/>
<path d="M2072 1508 c5 -14 51 -42 86 -53 42 -12 23 19 -26 43 -54 25 -65 27
-60 10z"/>
<path d="M2252 1438 c5 -15 118 -25 118 -10 0 13 -16 18 -74 21 -36 2 -47 -1
-44 -11z"/>
</g>
</svg>
