<?xml version="1.0" standalone="no"?>
<!DOCTYPE svg PUBLIC "-//W3C//DTD SVG 20010904//EN"
 "http://www.w3.org/TR/2001/REC-SVG-20010904/DTD/svg10.dtd">
<svg version="1.0" xmlns="http://www.w3.org/2000/svg"
 width="479.000000pt" height="521.000000pt" viewBox="0 0 479.000000 521.000000"
 preserveAspectRatio="xMidYMid meet">

<g transform="translate(0.000000,521.000000) scale(0.100000,-0.100000)"
fill="#000000" stroke="none">
<path d="M602 4362 c-47 -4 -64 -24 -40 -48 19 -19 140 -29 169 -14 19 10 19
14 6 33 -16 24 -63 34 -135 29z"/>
<path d="M817 4332 c-2 -4 -3 -18 -3 -32 1 -18 7 -25 21 -26 11 -1 31 -5 45
-10 14 -4 28 -9 33 -10 4 -1 8 -2 10 -3 13 -11 60 -7 72 6 20 19 15 35 -16 50
-21 10 -46 15 -136 28 -13 2 -24 0 -26 -3z"/>
<path d="M1075 4235 c3 -31 -4 -25 78 -64 70 -34 97 -35 97 -3 0 20 -29 52
-48 52 -6 0 -27 9 -47 20 -20 11 -46 20 -59 20 -20 0 -24 -5 -21 -25z"/>
<path d="M1315 4124 c-8 -9 -15 -19 -15 -23 0 -4 27 -31 61 -59 61 -52 95 -64
105 -38 8 21 -49 89 -96 114 -35 19 -41 19 -55 6z"/>
<path d="M1507 3953 c-14 -13 -6 -42 20 -73 15 -18 34 -46 42 -63 19 -36 31
-42 54 -24 16 11 17 15 3 47 -34 83 -94 139 -119 113z"/>
<path d="M1649 3724 c-10 -13 -10 -21 0 -47 7 -18 21 -54 31 -81 18 -50 41
-66 66 -45 11 9 8 55 -6 74 -4 6 -10 22 -13 36 -7 28 -43 79 -57 79 -4 0 -13
-7 -21 -16z"/>
<path d="M1730 3450 c0 -35 19 -129 31 -152 10 -18 45 -14 52 6 5 13 -15 124
-28 159 -4 9 -18 17 -31 17 -20 0 -24 -5 -24 -30z"/>
<path d="M1765 3207 c-2 -7 -6 -36 -10 -66 -3 -29 -8 -57 -10 -61 -3 -5 -1
-20 5 -34 10 -28 50 -37 50 -11 0 24 1 29 9 40 7 9 11 39 15 110 1 25 -3 30
-27 32 -15 1 -30 -3 -32 -10z"/>
<path d="M1751 2951 c-10 -7 -12 -26 -7 -87 7 -83 18 -106 44 -97 25 9 31 23
26 57 -3 17 -6 51 -8 75 -4 52 -24 71 -55 52z"/>
<path d="M1787 2703 c-19 -19 19 -148 50 -171 45 -33 54 21 17 103 -29 68 -49
87 -67 68z"/>
<path d="M1897 2474 c-16 -17 -4 -43 49 -102 45 -50 59 -60 70 -51 22 18 18
27 -43 93 -61 66 -66 70 -76 60z"/>
<path d="M2069 2299 c-12 -7 -12 -12 1 -36 17 -30 134 -95 157 -86 25 10 14
47 -20 66 -17 11 -34 19 -37 19 -3 0 -12 6 -20 13 -24 22 -65 34 -81 24z"/>
<path d="M2307 2183 c-4 -3 -7 -17 -7 -29 0 -19 8 -24 58 -35 89 -19 120 -19
125 2 6 24 -7 33 -75 53 -60 17 -91 20 -101 9z"/>
<path d="M2563 2163 c-14 -5 -18 -63 -5 -63 4 0 41 -2 82 -4 43 -3 80 0 87 6
17 14 17 48 1 49 -80 5 -135 10 -143 13 -5 2 -16 1 -22 -1z"/>
<path d="M2819 2133 c-19 -23 2 -47 47 -55 21 -3 52 -9 67 -12 39 -9 67 1 67
24 0 24 -24 37 -81 45 -24 4 -54 8 -66 10 -12 2 -28 -4 -34 -12z"/>
<path d="M3067 2070 c-6 -24 8 -36 53 -45 19 -4 49 -13 65 -20 37 -15 78 -3
73 22 -4 21 -101 62 -149 63 -28 0 -38 -5 -42 -20z"/>
<path d="M3331 1986 c-19 -23 -9 -38 45 -65 27 -14 56 -31 65 -38 19 -16 45
-9 53 14 7 16 -19 53 -37 53 -5 0 -21 9 -36 19 -40 29 -75 35 -90 17z"/>
<path d="M3553 1853 c-25 -9 -12 -45 39 -108 28 -36 54 -65 58 -65 3 0 15 6
25 14 18 13 17 16 -22 68 -53 68 -85 97 -100 91z"/>
<path d="M3694 1583 c3 -21 12 -63 19 -93 11 -45 17 -55 35 -56 37 -2 42 17
26 81 -8 33 -18 70 -21 83 -4 16 -13 22 -35 22 -28 0 -29 -1 -24 -37z"/>
<path d="M3731 1339 c-5 -15 -7 -30 -4 -33 3 -3 0 -12 -7 -21 -9 -11 -27 -14
-71 -11 -73 4 -86 -8 -63 -55 10 -19 22 -43 27 -54 38 -77 100 -191 109 -202
15 -19 27 -16 38 10 6 12 26 42 44 67 19 25 35 50 35 56 1 6 8 17 16 24 9 7
23 28 31 46 9 19 20 34 25 34 12 0 11 47 -1 55 -5 3 -29 7 -53 9 -57 3 -63 9
-65 52 -2 42 -5 47 -32 49 -13 1 -22 -8 -29 -26z"/>
</g>
</svg>
