<?xml version="1.0" standalone="no"?>
<!DOCTYPE svg PUBLIC "-//W3C//DTD SVG 20010904//EN"
 "http://www.w3.org/TR/2001/REC-SVG-20010904/DTD/svg10.dtd">
<svg version="1.0" xmlns="http://www.w3.org/2000/svg"
 width="749.000000pt" height="333.000000pt" viewBox="0 0 749.000000 333.000000"
 preserveAspectRatio="xMidYMid meet">

<g transform="translate(0.000000,333.000000) scale(0.100000,-0.100000)"
fill="#000000" stroke="none">
<path d="M5993 2479 c-50 -12 -69 -37 -49 -64 8 -12 25 -18 47 -18 33 1 186
10 202 12 10 1 9 43 -2 60 -11 17 -138 24 -198 10z"/>
<path d="M6323 2458 c-13 -6 -23 -20 -23 -32 0 -24 31 -40 95 -50 22 -4 49 -9
60 -12 73 -16 95 -16 101 1 4 10 3 29 -2 44 -8 21 -16 26 -41 26 -17 0 -35 3
-39 8 -4 4 -20 7 -36 7 -15 0 -28 5 -28 10 0 13 -59 12 -87 -2z"/>
<path d="M5750 2449 c-37 -10 -75 -26 -100 -40 -8 -5 -27 -14 -42 -20 -37 -14
-38 -52 -2 -75 24 -16 26 -16 56 6 17 13 61 30 97 39 56 14 67 20 75 43 8 23
6 31 -10 43 -22 16 -26 17 -74 4z"/>
<path d="M6669 2359 c-13 -25 4 -75 21 -64 6 3 13 0 16 -8 3 -8 20 -18 37 -21
18 -3 54 -17 81 -31 51 -26 92 -25 82 1 -3 7 -1 16 4 19 12 7 -20 45 -37 45
-7 0 -13 5 -13 10 0 6 -9 10 -19 10 -11 0 -21 4 -23 8 -4 10 -102 52 -122 52
-8 0 -20 -10 -27 -21z"/>
<path d="M5414 2307 c-17 -7 -38 -20 -48 -29 -9 -9 -26 -20 -38 -24 -33 -10
-78 -56 -78 -79 0 -28 49 -50 64 -30 6 8 28 21 49 30 20 8 37 19 37 24 0 5 15
15 34 21 40 13 70 52 61 80 -7 23 -34 25 -81 7z"/>
<path d="M7003 2203 c-22 -8 -14 -39 17 -72 17 -17 33 -31 37 -31 3 0 21 -11
39 -25 18 -14 37 -25 43 -25 6 0 11 -4 11 -10 0 -22 48 -9 65 17 17 25 17 27
-6 44 -13 10 -29 19 -35 19 -6 0 -17 11 -24 25 -7 14 -18 25 -24 25 -6 0 -22
9 -36 20 -24 19 -61 24 -87 13z"/>
<path d="M5122 2109 c-13 -5 -21 -13 -18 -18 3 -5 -8 -14 -24 -21 -17 -7 -30
-17 -30 -22 0 -5 -15 -24 -34 -41 -38 -36 -44 -51 -32 -85 12 -37 34 -26 129
63 27 25 51 45 55 45 4 0 13 12 20 27 11 25 10 29 -10 45 -26 20 -25 20 -56 7z"/>
<path d="M4862 1848 c-7 -7 -12 -20 -12 -30 0 -10 -3 -18 -8 -18 -7 0 -25 -30
-38 -62 -3 -10 -11 -18 -16 -18 -5 0 -6 -5 -2 -12 4 -6 0 -16 -8 -22 -8 -6
-18 -23 -21 -38 -7 -25 -4 -28 27 -33 27 -6 39 -2 55 14 12 12 19 26 16 31 -3
5 0 12 7 17 8 4 29 39 48 76 l34 69 -25 19 c-28 22 -41 23 -57 7z"/>
<path d="M1958 1813 c-21 -5 -24 -41 -5 -67 10 -14 22 -17 50 -13 21 3 39 1
42 -3 6 -9 123 -20 141 -13 18 7 18 44 1 67 -10 13 -29 18 -85 19 -39 1 -72 5
-72 10 0 7 -43 8 -72 0z"/>
<path d="M1705 1784 c-126 -31 -135 -34 -135 -54 0 -10 6 -25 14 -33 13 -13
28 -11 118 10 105 25 146 48 135 77 -8 20 -50 20 -132 0z"/>
<path d="M2311 1741 c-20 -13 -7 -55 21 -68 13 -6 44 -17 71 -24 26 -8 47 -17
47 -21 0 -4 8 -8 18 -8 10 0 23 -5 29 -11 17 -17 50 -1 57 27 7 27 -12 54 -38
54 -8 0 -17 4 -20 8 -3 4 -28 14 -55 22 -28 7 -51 17 -51 22 0 11 -61 10 -79
-1z"/>
<path d="M1404 1665 c-15 -14 -32 -25 -38 -25 -6 0 -22 -12 -35 -25 -13 -14
-27 -25 -32 -25 -5 0 -9 -6 -9 -14 0 -8 -9 -18 -20 -21 -27 -8 -25 -35 4 -63
l24 -22 27 22 c15 13 36 33 48 46 11 12 26 22 32 22 13 0 75 67 75 81 0 9 -36
49 -44 49 -3 0 -17 -11 -32 -25z"/>
<path d="M2650 1595 c-7 -8 -10 -21 -7 -29 9 -23 76 -68 101 -68 14 0 27 -7
30 -14 3 -8 12 -14 21 -14 8 0 15 -4 15 -10 0 -14 43 -12 64 3 30 22 15 49
-41 76 -29 14 -52 32 -53 39 0 6 -9 12 -20 12 -11 0 -20 5 -20 10 0 16 -76 12
-90 -5z"/>
<path d="M4662 1529 c-12 -9 -22 -22 -22 -28 0 -6 -4 -11 -10 -11 -5 0 -10 -5
-10 -11 0 -6 -19 -29 -42 -50 -38 -35 -41 -41 -32 -66 7 -20 17 -29 37 -31 18
-2 27 1 27 11 0 7 11 20 25 27 14 7 25 17 25 22 0 5 11 19 25 32 14 13 25 29
25 36 0 7 7 18 15 24 21 15 8 53 -19 58 -13 3 -33 -3 -44 -13z"/>
<path d="M2968 1421 c-18 -18 -14 -61 6 -61 6 0 22 -10 36 -23 14 -13 39 -30
57 -37 18 -8 38 -25 44 -38 9 -16 20 -22 38 -20 15 2 26 9 26 16 0 7 5 16 11
20 15 9 -1 52 -20 52 -7 0 -16 7 -20 15 -3 8 -12 15 -21 15 -8 0 -15 4 -15 8
0 5 -16 14 -35 22 -19 8 -35 17 -35 21 0 4 -8 9 -17 13 -10 3 -22 8 -28 10 -5
3 -18 -3 -27 -13z"/>
<path d="M1133 1396 c-28 -34 -83 -59 -83 -37 0 6 -7 11 -15 11 -9 0 -18 7
-21 15 -4 8 -12 15 -20 15 -8 0 -14 5 -14 10 0 6 -13 10 -30 10 -23 0 -30 -4
-30 -20 0 -11 -4 -20 -8 -20 -5 0 -8 -24 -8 -52 1 -75 -11 -230 -20 -251 -3
-10 -4 -32 0 -49 3 -17 1 -37 -5 -44 -32 -39 30 -60 69 -24 12 11 49 29 81 39
33 10 67 26 76 35 9 8 35 21 58 28 23 6 50 20 60 29 9 10 35 23 57 29 34 9 40
15 40 38 0 21 -7 30 -31 41 -17 7 -42 24 -56 37 -14 13 -32 24 -39 24 -24 0
-26 39 -5 69 23 32 27 71 9 89 -19 19 -35 14 -65 -22z"/>
<path d="M4408 1278 c-16 -5 -28 -15 -28 -22 0 -7 -18 -18 -40 -25 -22 -6 -40
-18 -40 -25 0 -8 -9 -16 -20 -19 -14 -3 -20 -14 -20 -31 0 -23 4 -26 35 -26
40 0 105 24 105 38 0 5 14 15 30 22 17 7 30 17 30 22 0 5 9 17 21 26 46 38 -5
65 -73 40z"/>
<path d="M3273 1232 c-13 -2 -23 -12 -25 -25 -5 -29 20 -67 38 -60 8 3 14 1
14 -3 0 -5 15 -15 33 -23 17 -7 46 -20 62 -27 67 -30 105 -14 92 38 -6 22 -27
36 -62 42 -5 0 -20 7 -33 14 -12 7 -26 10 -31 8 -5 -3 -12 1 -15 10 -3 9 -13
14 -21 10 -8 -3 -18 0 -22 7 -5 7 -18 11 -30 9z"/>
<path d="M4066 1105 c-27 -8 -67 -16 -89 -19 -23 -3 -45 -10 -50 -15 -13 -13
1 -51 19 -51 44 0 211 44 228 60 40 39 -13 51 -108 25z"/>
<path d="M3582 1089 c-7 -10 -9 -25 -6 -33 7 -18 39 -30 54 -21 5 3 10 2 10
-3 0 -11 77 -23 135 -22 64 2 83 32 45 70 -16 16 -28 19 -55 14 -18 -3 -40 -2
-47 2 -7 5 -38 9 -69 10 -44 1 -58 -3 -67 -17z"/>
</g>
</svg>
