<?xml version="1.0" standalone="no"?>
<!DOCTYPE svg PUBLIC "-//W3C//DTD SVG 20010904//EN"
 "http://www.w3.org/TR/2001/REC-SVG-20010904/DTD/svg10.dtd">
<svg version="1.0" xmlns="http://www.w3.org/2000/svg"
 width="537.000000pt" height="465.000000pt" viewBox="0 0 537.000000 465.000000"
 preserveAspectRatio="xMidYMid meet">

<g transform="translate(0.000000,465.000000) scale(0.100000,-0.100000)"
fill="#000000" stroke="none">
<path d="M2400 2951 c0 -11 30 -19 48 -14 23 8 12 23 -18 23 -16 0 -30 -4 -30
-9z"/>
<path d="M2282 2937 c-37 -11 -38 -34 -1 -29 27 4 43 16 38 29 -2 5 -18 5 -37
0z"/>
<path d="M2550 2935 c0 -8 6 -15 14 -15 8 0 21 -3 30 -6 27 -10 18 12 -9 24
-33 15 -35 15 -35 -3z"/>
<path d="M3956 2881 c-3 -5 10 -11 29 -13 24 -3 35 0 35 9 0 15 -56 18 -64 4z"/>
<path d="M2145 2860 c-18 -19 -17 -20 3 -20 12 0 26 9 32 20 8 16 8 20 -3 20
-8 0 -22 -9 -32 -20z"/>
<path d="M2680 2870 c0 -12 49 -45 56 -37 6 6 -36 47 -48 47 -4 0 -8 -4 -8
-10z"/>
<path d="M4100 2870 c0 -5 9 -10 19 -10 11 0 28 -3 38 -7 16 -6 16 -5 4 10
-14 18 -61 23 -61 7z"/>
<path d="M3817 2863 c-24 -23 9 -31 39 -8 18 14 18 14 -7 15 -14 0 -29 -3 -32
-7z"/>
<path d="M4240 2837 c0 -7 14 -18 30 -24 24 -9 30 -9 30 2 0 7 -13 18 -30 24
-23 7 -30 7 -30 -2z"/>
<path d="M3684 2826 c-10 -8 -16 -17 -13 -21 11 -10 59 6 59 21 0 18 -21 18
-46 0z"/>
<path d="M2047 2767 c-24 -37 -22 -56 4 -30 12 11 19 29 17 39 -3 15 -6 14
-21 -9z"/>
<path d="M3568 2773 c-16 -4 -33 -32 -24 -40 8 -9 46 18 46 32 0 8 -1 14 -2
14 -2 -1 -10 -3 -20 -6z"/>
<path d="M4380 2771 c0 -12 29 -41 41 -41 17 0 9 18 -16 34 -14 9 -25 12 -25
7z"/>
<path d="M2790 2758 c0 -24 11 -48 22 -48 5 0 6 10 3 23 -10 30 -25 46 -25 25z"/>
<path d="M3435 2676 c-27 -24 -28 -26 -9 -26 24 0 48 23 42 40 -2 7 -16 0 -33
-14z"/>
<path d="M4490 2677 c0 -17 26 -47 41 -47 15 0 10 14 -16 39 -19 17 -25 19
-25 8z"/>
<path d="M1977 2633 c-3 -16 -3 -30 -1 -33 7 -7 24 23 24 43 0 27 -17 20 -23
-10z"/>
<path d="M2812 2595 c0 -34 12 -48 20 -23 6 17 -3 58 -12 58 -4 0 -8 -16 -8
-35z"/>
<path d="M3336 2574 c-15 -15 -21 -34 -11 -34 12 0 43 40 35 45 -4 3 -16 -2
-24 -11z"/>
<path d="M4580 2553 c1 -14 30 -47 36 -41 8 8 -14 48 -26 48 -6 0 -10 -3 -10
-7z"/>
<path d="M1954 2513 c-7 -2 -10 -13 -7 -24 4 -15 0 -22 -16 -26 -29 -7 -27
-19 5 -27 33 -9 36 -5 40 38 3 36 -3 46 -22 39z"/>
<path d="M2762 2478 c-13 -13 -17 -48 -6 -48 10 0 33 33 34 48 0 15 -12 16
-28 0z"/>
<path d="M1766 2461 c-6 -10 33 -20 52 -13 7 2 12 8 12 13 0 12 -57 12 -64 0z"/>
<path d="M3250 2451 c-12 -24 -13 -41 -2 -41 8 0 32 43 32 55 0 13 -21 3 -30
-14z"/>
<path d="M1620 2443 c0 -14 19 -17 44 -7 27 10 18 23 -14 21 -16 -1 -30 -8
-30 -14z"/>
<path d="M4744 2452 c-5 -4 -11 -16 -11 -27 -1 -11 -3 -44 -4 -72 -3 -65 -12
-67 -80 -13 -28 22 -55 38 -60 34 -18 -11 -8 -30 24 -47 18 -10 46 -29 62 -43
61 -52 88 -25 92 92 2 82 -1 92 -23 76z"/>
<path d="M4661 2410 c6 -16 15 -30 19 -30 5 0 4 14 -1 30 -6 17 -15 30 -19 30
-5 0 -4 -13 1 -30z"/>
<path d="M2050 2420 c0 -5 6 -10 13 -10 6 0 23 -3 37 -6 24 -5 24 -5 6 10 -22
18 -56 21 -56 6z"/>
<path d="M1481 2411 c-7 -5 -11 -13 -7 -19 8 -13 66 4 66 19 0 11 -41 11 -59
0z"/>
<path d="M2651 2379 c-30 -24 -22 -35 13 -17 15 8 22 18 18 25 -5 8 -14 6 -31
-8z"/>
<path d="M2197 2369 c18 -18 56 -23 51 -7 -3 7 -18 14 -34 16 -23 3 -27 1 -17
-9z"/>
<path d="M1363 2358 c-25 -12 -31 -28 -10 -28 14 1 47 24 47 34 0 8 -11 7 -37
-6z"/>
<path d="M1964 2348 c3 -13 5 -26 5 -30 1 -8 31 -11 31 -4 0 3 -4 16 -10 30
-12 32 -31 34 -26 4z"/>
<path d="M2340 2336 c0 -8 14 -16 30 -18 24 -4 30 -1 28 11 -4 19 -58 26 -58
7z"/>
<path d="M2498 2342 c-31 -6 -19 -22 17 -22 19 0 35 4 35 9 0 11 -29 18 -52
13z"/>
<path d="M3201 2310 c-8 -24 -7 -30 5 -30 7 0 14 6 14 14 0 8 3 21 6 30 3 9 2
16 -4 16 -6 0 -15 -13 -21 -30z"/>
<path d="M1228 2279 c-35 -37 -13 -41 29 -4 25 22 26 24 8 24 -11 0 -28 -9
-37 -20z"/>
<path d="M2005 2220 c-6 -10 15 -50 27 -50 9 0 10 8 2 38 -7 23 -19 29 -29 12z"/>
<path d="M1118 2201 c-17 -17 -24 -41 -13 -41 15 0 48 41 39 49 -5 5 -16 2
-26 -8z"/>
<path d="M3142 2181 c-9 -25 -8 -31 2 -31 16 0 29 41 17 53 -5 5 -13 -5 -19
-22z"/>
<path d="M1006 2100 c-26 -27 -16 -42 13 -19 14 12 20 23 15 28 -5 5 -17 1
-28 -9z"/>
<path d="M2082 2065 c6 -14 15 -25 20 -25 11 0 10 7 -2 31 -16 28 -32 23 -18
-6z"/>
<path d="M3070 2058 c-12 -14 -16 -24 -10 -26 12 -4 50 26 50 40 0 15 -19 8
-40 -14z"/>
<path d="M902 1990 c-16 -26 -16 -45 1 -28 33 36 40 48 26 48 -8 0 -20 -9 -27
-20z"/>
<path d="M2160 1962 c0 -5 9 -17 20 -27 19 -18 20 -17 20 2 0 12 -7 24 -16 27
-21 8 -24 8 -24 -2z"/>
<path d="M2975 1958 c-28 -15 -28 -15 -20 -27 4 -7 14 -4 27 9 25 23 21 33 -7
18z"/>
<path d="M837 1910 c-9 -11 -23 -20 -31 -20 -8 0 -18 -5 -22 -11 -5 -8 1 -10
20 -7 14 3 26 2 26 -2 0 -9 -52 -46 -78 -54 -12 -4 -20 -12 -17 -17 4 -5 14
-5 25 1 26 14 51 13 49 -2 -4 -30 2 -58 11 -58 6 0 10 20 10 44 0 69 20 102
35 56 11 -34 20 -22 18 25 -3 68 -15 80 -46 45z"/>
<path d="M2270 1865 c0 -8 4 -15 9 -15 5 0 16 -3 25 -6 26 -10 18 12 -9 24
-21 10 -25 9 -25 -3z"/>
<path d="M2842 1869 c-13 -5 -20 -13 -17 -19 4 -6 17 -4 36 5 45 24 31 35 -19
14z"/>
<path d="M2397 1804 c6 -17 42 -29 54 -17 6 6 -4 14 -25 20 -28 9 -33 8 -29
-3z"/>
<path d="M2711 1809 c-13 -5 -22 -12 -19 -15 8 -8 58 7 58 17 0 11 -8 11 -39
-2z"/>
<path d="M2547 1794 c-15 -15 -6 -24 22 -24 17 0 33 5 36 10 3 6 0 10 -9 10
-8 0 -21 2 -28 5 -8 3 -17 2 -21 -1z"/>
</g>
</svg>
