<?xml version="1.0" standalone="no"?>
<!DOCTYPE svg PUBLIC "-//W3C//DTD SVG 20010904//EN"
 "http://www.w3.org/TR/2001/REC-SVG-20010904/DTD/svg10.dtd">
<svg version="1.0" xmlns="http://www.w3.org/2000/svg"
 width="471.000000pt" height="529.000000pt" viewBox="0 0 471.000000 529.000000"
 preserveAspectRatio="xMidYMid meet">

<g transform="translate(0.000000,529.000000) scale(0.100000,-0.100000)"
fill="#000000" stroke="none">
<path d="M2370 3901 c0 -5 17 -18 38 -28 20 -10 46 -32 57 -50 23 -37 30 -40
39 -17 9 24 -74 104 -108 104 -14 0 -26 -4 -26 -9z"/>
<path d="M2250 3829 c-35 -42 -55 -89 -36 -89 15 0 88 105 79 114 -10 10 -17
6 -43 -25z"/>
<path d="M2428 3693 c-9 -16 -26 -39 -38 -51 -15 -15 -19 -27 -13 -33 11 -11
93 79 93 100 0 21 -26 11 -42 -16z"/>
<path d="M2160 3622 c0 -30 9 -70 23 -101 l23 -52 49 33 c50 35 67 58 43 58
-7 0 -24 -9 -38 -20 -14 -11 -30 -20 -36 -20 -13 0 -33 60 -36 109 -5 57 -28
51 -28 -7z"/>
<path d="M2250 3451 c0 -12 17 -31 44 -51 50 -33 66 -37 66 -15 0 8 -6 15 -14
15 -7 0 -19 7 -26 15 -7 9 -26 25 -42 36 l-28 20 0 -20z"/>
<path d="M2041 3434 c-40 -18 -51 -28 -43 -36 8 -8 26 -5 68 13 53 23 71 42
42 46 -7 1 -37 -10 -67 -23z"/>
<path d="M1870 3374 c-19 -7 -45 -13 -57 -13 -14 -1 -23 -7 -23 -17 0 -13 7
-15 43 -9 55 10 87 22 87 34 0 17 -14 19 -50 5z"/>
<path d="M2430 3329 c0 -11 55 -37 101 -46 47 -9 34 12 -22 36 -57 23 -79 26
-79 10z"/>
<path d="M1635 3316 c-34 -8 -51 -18 -53 -30 -3 -14 0 -17 18 -11 13 4 28 8
34 9 52 10 76 20 73 29 -5 16 -16 16 -72 3z"/>
<path d="M1421 3269 c-51 -10 -59 -15 -44 -30 9 -9 20 -8 44 0 17 6 43 11 55
11 15 0 24 6 24 15 0 16 -13 17 -79 4z"/>
<path d="M2635 3260 c-4 -6 -5 -13 -3 -16 11 -10 120 -34 130 -28 13 9 -7 21
-55 35 -21 5 -44 12 -52 15 -7 3 -16 0 -20 -6z"/>
<path d="M1230 3238 c-30 -5 -62 -16 -70 -24 -14 -15 -9 -16 50 -9 36 3 69 10
74 15 19 19 -2 25 -54 18z"/>
<path d="M983 3197 c-36 -11 -44 -27 -14 -27 52 0 111 14 111 26 0 15 -47 16
-97 1z"/>
<path d="M2840 3190 c0 -8 101 -60 116 -60 2 0 4 6 4 14 0 7 -22 23 -49 35
-55 23 -71 26 -71 11z"/>
<path d="M3030 3098 c0 -12 108 -73 116 -66 6 7 -12 25 -51 51 -43 29 -65 34
-65 15z"/>
<path d="M3205 2990 c-6 -9 82 -81 100 -80 20 0 9 18 -33 54 -46 38 -57 42
-67 26z"/>
<path d="M3360 2851 c0 -15 74 -101 88 -101 20 0 14 15 -25 64 -35 42 -63 59
-63 37z"/>
<path d="M3480 2680 c0 -28 36 -120 47 -120 17 0 16 3 -4 66 -9 29 -22 55 -30
58 -7 3 -13 1 -13 -4z"/>
<path d="M3527 2474 c-9 -36 -8 -124 2 -124 16 0 20 14 22 69 2 53 -14 90 -24
55z"/>
<path d="M3491 2258 c-5 -13 -16 -40 -24 -60 -14 -33 -14 -38 -1 -38 14 0 54
78 54 106 0 22 -20 16 -29 -8z"/>
<path d="M3386 2049 c-29 -59 -49 -66 -94 -33 -20 15 -40 33 -44 38 -9 14 -14
-2 -28 -99 -24 -168 -23 -184 6 -156 5 5 41 20 79 34 104 37 135 51 135 59 0
5 -51 47 -78 64 -2 1 12 26 32 56 38 55 44 78 24 78 -7 0 -22 -18 -32 -41z"/>
</g>
</svg>
